<svg width="153" height="71" viewBox="0 0 153 71" fill="none" xmlns="http://www.w3.org/2000/svg">
<path d="M133.456 43.5203C133.411 44.5219 133.112 45.2316 132.559 45.6494C132.018 46.0681 131.209 46.2395 130.131 46.1637C129.04 46.0869 128.245 45.8026 127.746 45.3108C127.247 44.819 127.021 44.0723 127.066 43.0707L128.132 19.5793C128.145 19.2931 128.122 19.0632 128.065 18.8895C128.008 18.7158 127.923 18.5794 127.81 18.4801C127.698 18.3678 127.558 18.2927 127.39 18.2548C127.236 18.2048 127.062 18.173 126.867 18.1593C126.581 18.1392 126.222 18.1596 125.789 18.2205C125.369 18.2823 124.922 18.3878 124.446 18.537C123.97 18.6862 123.485 18.8805 122.992 19.1198C122.513 19.3471 122.077 19.6166 121.685 19.9283C121.306 20.2409 120.99 20.5971 120.738 20.9969C120.485 21.3967 120.348 21.8372 120.326 22.3185C120.307 22.7347 120.344 23.0701 120.437 23.3245C120.542 23.5799 120.664 23.7776 120.801 23.9177C120.938 24.0449 121.078 24.133 121.219 24.182C121.373 24.219 121.483 24.2398 121.548 24.2444C121.873 24.2672 122.142 24.2339 122.354 24.1445C122.567 24.042 122.761 23.9382 122.935 23.833C123.11 23.7148 123.271 23.6087 123.419 23.5147C123.58 23.4086 123.758 23.3624 123.953 23.3761C124.108 23.3871 124.269 23.4375 124.434 23.5274C124.613 23.6053 124.771 23.7273 124.906 23.8934C125.055 24.0605 125.176 24.2777 125.268 24.5452C125.36 24.7996 125.398 25.109 125.382 25.4732C125.358 25.9935 125.234 26.4349 125.009 26.7975C124.797 27.161 124.523 27.4614 124.186 27.6987C123.864 27.9239 123.491 28.087 123.07 28.1878C122.662 28.2765 122.256 28.3067 121.854 28.2784C121.23 28.2346 120.67 28.0907 120.173 27.847C119.689 27.5911 119.281 27.2623 118.947 26.8604C118.614 26.4585 118.367 25.9975 118.209 25.4774C118.05 24.9573 117.983 24.4111 118.009 23.8388C118.05 22.9413 118.25 22.1332 118.608 21.4147C118.967 20.6831 119.439 20.0378 120.025 19.4787C120.623 18.9206 121.309 18.4469 122.083 18.0576C122.87 17.6563 123.712 17.3371 124.609 17.1C125.505 16.863 126.438 16.7068 127.405 16.6313C128.374 16.5428 129.338 16.5324 130.299 16.6C131.364 16.6749 132.185 16.837 132.76 17.0863C133.348 17.3234 133.772 17.5947 134.032 17.9C134.305 18.2063 134.46 18.5173 134.498 18.8332C134.536 19.149 134.55 19.411 134.541 19.6191L133.456 43.5203ZM145.892 28.3254L145.238 42.7442C145.207 43.4335 145.315 43.924 145.563 44.2154C145.811 44.4938 146.162 44.649 146.616 44.681C146.967 44.7057 147.283 44.6301 147.565 44.4541C147.847 44.2782 148.09 44.0735 148.296 43.8401C148.543 43.5834 148.758 43.2789 148.944 42.9265L149.535 43.2422C149.322 43.6447 149.067 44.0835 148.772 44.5586C148.49 45.0346 148.118 45.4717 147.657 45.8699C147.197 46.2551 146.622 46.567 145.934 46.8056C145.258 47.0452 144.414 47.1293 143.401 47.0581C142.829 47.0179 142.281 46.8945 141.756 46.6879C141.244 46.4823 140.789 46.1827 140.39 45.7893C140.004 45.3967 139.7 44.9186 139.478 44.3549C139.256 43.7913 139.162 43.1257 139.197 42.3583L139.853 27.9005L137.671 27.747L137.734 26.3422C138.098 26.3677 138.609 26.3123 139.266 26.1759C139.925 26.0265 140.601 25.7544 141.297 25.3597C142.005 24.9659 142.669 24.4188 143.287 23.7185C143.905 23.0182 144.362 22.1304 144.659 21.0551L146.217 21.1648L145.956 26.9206L149.132 27.144C150.171 27.2171 150.698 27.078 150.714 26.7268C150.72 26.5968 150.659 26.5077 150.531 26.4595C150.404 26.3983 150.257 26.3293 150.091 26.2524C149.939 26.1634 149.8 26.0492 149.676 25.91C149.552 25.7708 149.497 25.5516 149.511 25.2525C149.527 24.8883 149.651 24.6099 149.881 24.4173C150.124 24.2256 150.428 24.1426 150.791 24.1681C151.025 24.1846 151.224 24.2508 151.388 24.3667C151.566 24.4706 151.709 24.6111 151.819 24.7885C151.928 24.9528 152.005 25.1408 152.047 25.3526C152.103 25.5653 152.126 25.7757 152.116 25.9838C152.078 26.8293 151.8 27.4883 151.284 27.9609C150.781 28.4214 149.99 28.6137 148.912 28.5378L145.892 28.3254Z" fill="url(#paint0_linear_98_380)"/>
<path d="M15.9485 44.5137C14.8563 44.5724 14.0423 44.3879 13.5064 43.9604C12.9706 43.5329 12.6853 42.8181 12.6506 41.8161L11.7924 17.0262C11.3777 17.0876 10.8603 17.1936 10.2403 17.3443C9.63281 17.4812 8.99461 17.6719 8.32571 17.9164C7.6568 18.1609 6.98948 18.451 6.32373 18.7866C5.65753 19.1092 5.06465 19.48 4.54507 19.899C4.02505 20.305 3.60435 20.7578 3.28296 21.2574C2.96158 21.7571 2.81102 22.2997 2.83129 22.8853C2.84571 23.3017 2.9092 23.6307 3.02178 23.8724C3.14736 24.1133 3.28391 24.2951 3.43144 24.4175C3.57851 24.5269 3.72424 24.5973 3.86861 24.6287C4.02554 24.6463 4.13651 24.6534 4.20152 24.6499C4.52657 24.6325 4.79131 24.5661 4.99574 24.4508C5.19972 24.3226 5.3842 24.1953 5.54917 24.0691C5.71369 23.9299 5.86567 23.8044 6.00508 23.6926C6.15706 23.5671 6.33056 23.4992 6.52559 23.4887C6.68161 23.4803 6.84549 23.5106 7.01722 23.5796C7.2015 23.6349 7.36786 23.7368 7.51629 23.8853C7.67772 24.0331 7.81495 24.2343 7.92797 24.489C8.04055 24.7306 8.10315 25.0336 8.11576 25.398C8.13378 25.9185 8.0453 26.3731 7.85033 26.7616C7.66837 27.1495 7.41936 27.4822 7.10332 27.76C6.79983 28.024 6.4423 28.2322 6.03074 28.3847C5.63173 28.5234 5.23069 28.6036 4.82762 28.6253C4.20352 28.6588 3.63433 28.585 3.12004 28.4041C2.6183 28.2094 2.18537 27.9328 1.82125 27.5742C1.45713 27.2157 1.17527 26.7876 0.975669 26.2898C0.776071 25.7921 0.666361 25.2569 0.646539 24.6844C0.593832 23.1618 0.964401 21.8252 1.75824 20.6744C2.56464 19.5099 3.68334 18.5242 5.11435 17.7173C6.54491 16.8973 8.22276 16.2597 10.1479 15.8043C12.0731 15.3489 14.1408 15.0619 16.3512 14.9432C17.4043 14.8867 18.432 14.8445 19.434 14.8168C20.4356 14.7761 21.3467 14.7532 22.1672 14.7483C23.0007 14.7426 23.7173 14.7498 24.3172 14.7697C24.9171 14.7897 25.3547 14.8248 25.63 14.8752C25.8923 14.9263 26.1037 15.0128 26.2643 15.1345C26.4244 15.2433 26.5461 15.3736 26.6295 15.5256C26.7129 15.6776 26.7708 15.8439 26.8031 16.0247C26.835 16.1925 26.8541 16.3675 26.8604 16.5497C26.8653 16.6928 26.8517 16.863 26.8194 17.0603C26.7867 17.2446 26.7343 17.4234 26.6621 17.5968C26.59 17.7701 26.4974 17.9185 26.3845 18.0419C26.2715 18.1653 26.1305 18.2315 25.9615 18.2406C25.8575 18.2462 25.7454 18.2066 25.6252 18.1218C25.518 18.0363 25.3647 17.9337 25.1651 17.814C24.9656 17.6944 24.6939 17.559 24.35 17.408C24.0191 17.2563 23.5781 17.1235 23.027 17.0097C22.489 16.8952 21.8214 16.8007 21.0242 16.7261C20.24 16.6509 19.2882 16.6238 18.1686 16.6448L19.0282 41.4737C19.0628 42.4757 18.828 43.2184 18.3237 43.7017C17.8194 44.1851 17.0276 44.4558 15.9485 44.5137ZM49.0934 28.3214C49.0637 27.4625 48.9806 26.7565 48.8442 26.2032C48.7078 25.6499 48.5618 25.1949 48.4062 24.8383C48.2631 24.4679 48.129 24.1687 48.0039 23.9407C47.8783 23.6998 47.8119 23.4752 47.8047 23.267C47.7979 23.0718 47.8703 22.9049 48.0218 22.7664C48.1733 22.6279 48.3515 22.5075 48.5564 22.4053C48.7743 22.3023 48.9931 22.2254 49.2128 22.1745C49.4455 22.1229 49.6333 22.0932 49.7763 22.0855C50.1534 22.0653 50.4282 22.1027 50.6009 22.1977C50.7735 22.2927 50.917 22.4871 51.0314 22.7808C51.1615 23.1519 51.2568 23.6487 51.3175 24.2713C51.3906 24.8801 51.4394 25.5358 51.4637 26.2386C51.4984 27.2406 51.478 28.3433 51.4024 29.5468C51.3268 30.7503 51.18 31.9641 50.9618 33.1883C50.7567 34.4117 50.4722 35.6004 50.1083 36.7541C49.7574 37.9072 49.3178 38.9412 48.7893 39.8561C48.2604 40.758 47.6411 41.4953 46.9315 42.0679C46.2214 42.6275 45.4047 42.9321 44.4816 42.9817C43.7535 43.0208 43.0919 42.9129 42.4969 42.658C41.9145 42.3894 41.3869 42.0136 40.9143 41.5305C40.4416 41.0475 40.0181 40.477 39.6436 39.8192C39.2816 39.1476 38.9571 38.4285 38.6701 37.6616C38.3985 38.4715 38.0796 39.2317 37.7134 39.9424C37.3468 40.64 36.9317 41.2555 36.4682 41.7888C36.0177 42.3215 35.5114 42.7463 34.9492 43.0633C34.387 43.3803 33.7744 43.5566 33.1113 43.5922C32.2921 43.6362 31.5579 43.4996 30.9087 43.1825C30.2719 42.8516 29.7025 42.3933 29.2002 41.8075C28.6975 41.2087 28.2564 40.5088 27.877 39.7078C27.4976 38.9069 27.1621 38.0579 26.8705 37.161C26.5919 36.2633 26.3514 35.3375 26.1491 34.3837C25.9467 33.4298 25.7715 32.507 25.6234 31.6154C25.4753 30.7238 25.3487 29.8897 25.2437 29.1131C25.1386 28.3365 25.0372 27.664 24.9393 27.0956C24.8303 26.58 24.6798 26.1839 24.4879 25.9074C24.3089 25.6302 24.0114 25.5027 23.5954 25.5251C23.3743 25.537 23.1872 25.5861 23.0338 25.6726C22.8805 25.759 22.7153 25.8787 22.5382 26.0316L22.1118 25.5656C22.4023 25.3023 22.7255 25.0438 23.0814 24.79C23.4499 24.5225 23.8456 24.2862 24.2683 24.0809C24.6911 23.8757 25.1475 23.7013 25.6375 23.5576C26.1275 23.414 26.6456 23.3275 27.1917 23.2982C27.9718 23.2563 28.6071 23.3591 29.0977 23.6065C29.5878 23.8409 29.9763 24.1525 30.2633 24.5413C30.5629 24.9163 30.7791 25.3284 30.9118 25.7776C31.0446 26.2268 31.1433 26.6321 31.208 26.9937C31.51 28.9461 31.7975 30.6646 32.0703 32.1493C32.3562 33.6332 32.6467 34.8757 32.9419 35.8767C33.2366 36.8648 33.5425 37.611 33.8595 38.1155C34.1892 38.6062 34.562 38.8405 34.9781 38.8181C35.2511 38.8035 35.5136 38.672 35.7655 38.4238C36.0175 38.1756 36.2533 37.837 36.4729 37.4081C36.6925 36.9791 36.8962 36.4662 37.084 35.8694C37.2713 35.2597 37.4305 34.5927 37.5618 33.8686C37.407 33.1599 37.2719 32.4566 37.1566 31.7588C37.0412 31.061 36.9335 30.3954 36.8334 29.7619C36.7459 29.1148 36.66 28.5131 36.5756 27.9571C36.4912 27.401 36.4026 26.9103 36.3097 26.4851C36.0723 25.2724 36.1511 24.349 36.546 23.715C36.9539 23.0804 37.7949 22.7289 39.0691 22.6604C39.6282 22.6304 40.0981 22.6573 40.4787 22.7412C40.872 22.8113 41.1968 22.9764 41.4533 23.2364C41.7224 23.4827 41.943 23.8359 42.1153 24.296C42.2871 24.7431 42.4308 25.3221 42.5466 26.0329C42.8612 27.9716 43.1622 29.7024 43.4493 31.2254C43.7365 32.7484 44.0284 34.0299 44.3249 35.07C44.6215 36.1101 44.9289 36.9019 45.2474 37.4454C45.5783 37.9752 45.9519 38.2289 46.3679 38.2066C46.81 38.1828 47.2101 37.8876 47.5682 37.3208C47.9264 36.754 48.2264 36.0143 48.4684 35.1017C48.7104 34.1892 48.8826 33.1435 48.9851 31.9646C49.1005 30.7851 49.1367 29.5707 49.0934 28.3214ZM60.5433 32.8303C60.5577 33.2467 60.632 33.699 60.7661 34.1872C60.9128 34.6617 61.1117 35.1399 61.3629 35.6218C61.614 36.1038 61.9165 36.5634 62.2703 37.0007C62.6367 37.4243 63.047 37.7999 63.5012 38.1275C63.9685 38.4544 64.4788 38.7073 65.032 38.8862C65.5853 39.0651 66.187 39.1371 66.8371 39.1022C67.2922 39.0778 67.713 39.003 68.0994 38.878C68.4859 38.7529 68.845 38.5902 69.1768 38.3899C69.5085 38.1896 69.8264 37.9639 70.1303 37.7129C70.4338 37.4489 70.7368 37.1719 71.0394 36.8819L71.5432 37.3241C71.2581 37.7436 70.8899 38.2066 70.4385 38.7133C69.9871 39.2199 69.4372 39.7057 68.789 40.1707C68.1403 40.6228 67.3788 41.0156 66.5046 41.3494C65.6299 41.6702 64.627 41.8609 63.4958 41.9216C62.3646 41.9824 61.2525 41.84 60.1593 41.4945C59.0787 41.1354 58.1082 40.5682 57.2477 39.7931C56.3872 39.0179 55.6822 38.0324 55.1328 36.8364C54.5963 35.6397 54.2997 34.2215 54.243 32.5819C54.202 31.3977 54.3139 30.3031 54.5787 29.298C54.8435 28.293 55.2157 27.3799 55.6953 26.5589C56.1879 25.7372 56.7619 25.0089 57.4173 24.374C58.0857 23.7384 58.7902 23.2051 59.5308 22.7742C60.271 22.3304 61.0277 21.9899 61.8011 21.7528C62.587 21.502 63.344 21.357 64.0722 21.3179C65.0343 21.2663 65.8766 21.3254 66.5989 21.4952C67.3212 21.665 67.9225 21.913 68.4027 22.2392C68.896 22.5647 69.2677 22.9555 69.518 23.4114C69.7678 23.8542 69.9015 24.3294 69.919 24.837C69.9402 25.4486 69.7838 26.011 69.4499 26.5244C69.1155 27.0247 68.6621 27.4728 68.0896 27.8686L60.5433 32.8303ZM64.3262 28.6573C64.4917 28.5441 64.6248 28.4392 64.7257 28.3425C64.8391 28.2321 64.926 28.1101 64.9865 27.9765C65.0466 27.8299 65.0862 27.6583 65.1055 27.4617C65.1373 27.2514 65.148 26.9966 65.1377 26.6973C65.1264 26.3719 65.075 26.0162 64.9835 25.63C64.9045 25.2301 64.7744 24.859 64.5932 24.5167C64.412 24.1744 64.1874 23.8931 63.9192 23.6729C63.6511 23.4526 63.335 23.3522 62.9709 23.3718C62.5028 23.3969 62.1047 23.5617 61.7766 23.8661C61.461 24.1569 61.2003 24.5294 60.9946 24.9837C60.8019 25.4373 60.6504 25.9539 60.5402 26.5334C60.4426 27.0993 60.3712 27.6702 60.326 28.2463C60.2808 28.8224 60.2609 29.3775 60.2664 29.9117C60.2714 30.433 60.2802 30.8758 60.2928 31.2401L64.3262 28.6573ZM82.737 30.4848C82.7257 30.1595 82.6132 29.9178 82.3993 29.7598C82.1854 29.6018 81.9159 29.5315 81.5909 29.549C81.1358 29.5734 80.7038 29.7009 80.295 29.9315C79.8991 30.1613 79.5521 30.4863 79.254 30.9065C78.956 31.3266 78.7263 31.8409 78.565 32.4493C78.4032 33.0446 78.3358 33.7327 78.3629 34.5135C78.389 35.2683 78.4626 35.8901 78.5838 36.379C78.7179 36.8672 78.8812 37.2561 79.0736 37.5456C79.2785 37.8214 79.5065 38.0113 79.7576 38.1151C80.0087 38.219 80.2708 38.2636 80.5438 38.2489C80.8819 38.2307 81.1975 38.1291 81.4907 37.9438C81.7834 37.7456 82.0356 37.5039 82.2472 37.2188C82.4587 36.9336 82.6237 36.6184 82.742 36.2731C82.8603 35.9277 82.9136 35.5859 82.9019 35.2476L82.737 30.4848ZM79.34 22.1017C78.898 22.1255 78.4902 22.1995 78.1167 22.3239C77.7433 22.4482 77.4227 22.5958 77.1551 22.7666C76.8875 22.9374 76.679 23.1246 76.5297 23.3282C76.38 23.5188 76.3081 23.6986 76.3139 23.8678C76.3207 24.063 76.4232 24.2009 76.6214 24.2815C76.8321 24.3484 77.063 24.4338 77.3141 24.5377C77.5647 24.6285 77.7912 24.7728 77.9934 24.9705C78.2082 25.1546 78.3228 25.4548 78.3372 25.8712C78.3467 26.1445 78.297 26.4014 78.1881 26.6419C78.0917 26.8687 77.9492 27.0784 77.7604 27.2711C77.5843 27.45 77.368 27.5985 77.1115 27.7166C76.8676 27.8209 76.6092 27.8805 76.3361 27.8951C75.608 27.9342 75.0078 27.7187 74.5357 27.2487C74.0765 26.7779 73.8327 26.1326 73.8043 25.3128C73.7768 24.519 73.9614 23.8311 74.3581 23.2492C74.7544 22.6543 75.2777 22.1569 75.9282 21.7569C76.5917 21.3563 77.3431 21.0486 78.1824 20.8341C79.0212 20.6065 79.8632 20.4701 80.7083 20.4247C81.7225 20.3702 82.695 20.4288 83.6258 20.6005C84.5566 20.7721 85.3814 21.0799 86.1002 21.5236C86.832 21.9667 87.4187 22.548 87.8605 23.2674C88.3152 23.9861 88.5608 24.8725 88.5973 25.9265L88.9791 36.9551C88.9832 37.0722 88.9942 37.202 89.0121 37.3444C89.0301 37.4869 89.0671 37.6152 89.1232 37.7296C89.1792 37.8439 89.2606 37.9373 89.3673 38.0098C89.4741 38.0823 89.6249 38.1133 89.82 38.1028C90.054 38.0903 90.2656 37.9942 90.4548 37.8145C90.6565 37.6212 90.8322 37.4292 90.982 37.2387L91.4837 37.6224C91.2982 37.9061 91.0745 38.218 90.8127 38.558C90.5509 38.898 90.23 39.2216 89.8498 39.5288C89.4696 39.836 89.0229 40.1012 88.5096 40.3243C87.9963 40.5475 87.408 40.6768 86.7449 40.7124C85.9258 40.7564 85.1893 40.5548 84.5356 40.1075C83.8814 39.6472 83.4392 38.9148 83.209 37.9102C82.8123 38.4921 82.3929 38.984 81.9509 39.3858C81.5219 39.7869 81.0774 40.1172 80.6175 40.3765C80.1575 40.6359 79.6888 40.8305 79.2113 40.9605C78.7468 41.0897 78.2741 41.1673 77.793 41.1931C77.1689 41.2266 76.5609 41.1615 75.9691 40.9977C75.3772 40.8339 74.84 40.5564 74.3575 40.1651C73.8876 39.7601 73.4979 39.2269 73.1884 38.5656C72.892 37.9036 72.7268 37.0846 72.693 36.1086C72.652 34.9244 72.8525 33.9424 73.2945 33.1625C73.7364 32.3826 74.3257 31.7187 75.0622 31.1707C75.8113 30.609 76.6606 30.1201 77.6102 29.7041C78.5727 29.2873 79.5541 28.85 80.5543 28.3922C81.2981 28.0524 81.8288 27.5806 82.1466 26.9769C82.477 26.3594 82.6313 25.7384 82.6097 25.1138C82.5763 24.1508 82.2637 23.3984 81.6718 22.8566C81.0924 22.301 80.3152 22.0494 79.34 22.1017ZM99.7127 24.7235C100.147 24.0874 100.613 23.4431 101.111 22.7906C101.609 22.125 102.149 21.5224 102.729 20.9828C103.31 20.4432 103.945 19.9918 104.636 19.6288C105.327 19.2658 106.088 19.0619 106.921 19.0173C107.662 18.9775 108.284 19.094 108.789 19.3667C109.293 19.6265 109.702 19.9566 110.015 20.3569C110.341 20.7436 110.57 21.155 110.703 21.5911C110.848 22.0266 110.926 22.4005 110.937 22.7128C110.957 23.2854 110.899 23.8881 110.765 24.5212C110.643 25.1404 110.411 25.7657 110.068 26.3968C109.738 27.0143 109.283 27.6253 108.705 28.23C108.126 28.8217 107.39 29.3762 106.496 29.8936C107.808 32.4175 109.075 34.5854 110.297 36.3971C111.518 38.1959 112.683 39.6652 113.791 40.8052C114.912 41.9574 115.976 42.7933 116.984 43.3128C117.992 43.8323 118.945 44.068 119.842 44.0198C119.998 44.0115 120.153 43.9836 120.308 43.9362C120.463 43.8887 120.604 43.8355 120.732 43.7765C120.874 43.7168 121.021 43.6437 121.174 43.5572L121.568 44.2205C121.224 44.4345 120.873 44.6359 120.515 44.8246C120.157 45.0264 119.746 45.2049 119.283 45.3601C118.819 45.5154 118.283 45.6485 117.675 45.7594C117.066 45.8702 116.34 45.9484 115.494 45.9938C114.727 46.0349 113.963 45.9847 113.203 45.843C112.456 45.7006 111.697 45.4154 110.926 44.9875C110.156 44.5595 109.367 43.976 108.56 43.2371C107.766 42.4975 106.939 41.5511 106.078 40.3979C105.23 39.244 104.349 37.8638 103.434 36.2572C102.518 34.6506 101.561 32.766 100.561 30.6033C101.777 29.6124 102.729 28.7073 103.418 27.8882C104.105 27.056 104.62 26.3113 104.962 25.6541C105.304 24.9969 105.512 24.4186 105.586 23.9192C105.66 23.4198 105.691 22.9945 105.678 22.6431C105.677 22.5911 105.667 22.5068 105.65 22.3904C105.633 22.261 105.583 22.1398 105.501 22.0269C105.432 21.9133 105.324 21.8147 105.178 21.7313C105.045 21.6472 104.855 21.6118 104.608 21.6251C104.126 21.6509 103.646 21.8853 103.166 22.3282C102.686 22.7582 102.229 23.2911 101.795 23.9272C101.374 24.5495 100.993 25.2218 100.654 25.9441C100.314 26.6533 100.036 27.3005 99.8222 27.8856L100.171 37.9577C100.177 38.1269 100.151 38.3303 100.094 38.5681C100.05 38.8051 99.9215 39.0337 99.7077 39.2537C99.5069 39.4731 99.2009 39.6655 98.7898 39.831C98.3921 40.0088 97.8487 40.1162 97.1596 40.1532C96.4705 40.1902 95.928 40.1346 95.5321 39.9864C95.1366 39.8512 94.8375 39.6782 94.6348 39.4674C94.4451 39.256 94.3202 39.0345 94.2601 38.8031C94.213 38.571 94.187 38.3833 94.182 38.2402L93.3103 13.06C93.2973 12.6826 93.195 12.3621 93.0035 12.0986C92.8246 11.8214 92.5271 11.694 92.111 11.7163C91.89 11.7282 91.6963 11.7777 91.5299 11.8649C91.3762 11.9383 91.2108 12.0515 91.0337 12.2044L90.6274 11.7569C90.9179 11.4936 91.2411 11.235 91.5971 10.9812C91.9526 10.7144 92.3417 10.4784 92.7644 10.2732C93.2002 10.0673 93.6631 9.89252 94.1531 9.74887C94.6432 9.60523 95.1612 9.51874 95.7073 9.48942C96.5524 9.44404 97.2131 9.52591 97.6893 9.73501C98.165 9.9311 98.5193 10.1924 98.752 10.5188C98.9843 10.8323 99.1265 11.1767 99.1786 11.552C99.2432 11.9135 99.2805 12.2375 99.2904 12.5237L99.7127 24.7235Z" fill="url(#paint1_linear_98_380)"/>
<defs>
<linearGradient id="paint0_linear_98_380" x1="135.294" y1="7.12941" x2="130.927" y2="69.1914" gradientUnits="userSpaceOnUse">
<stop stop-color="white"/>
<stop offset="1" stop-color="#3FE3C2"/>
</linearGradient>
<linearGradient id="paint1_linear_98_380" x1="55.948" y1="3.00402" x2="59.285" y2="65.1526" gradientUnits="userSpaceOnUse">
<stop stop-color="white"/>
<stop offset="1" stop-color="#3FE3C2"/>
</linearGradient>
</defs>
</svg>
